<svg width="16" height="16" viewBox="0 0 16 16" fill="none" xmlns="http://www.w3.org/2000/svg">
<rect width="16" height="16" fill="white" fill-opacity="0.01" style="mix-blend-mode:multiply"/>
<path d="M2 3H1V13H2V3Z" fill="#34322D"/>
<path d="M4 2H3V14H4V2Z" fill="#34322D"/>
<path d="M13 11H7V12H13V11Z" fill="#34322D"/>
<path d="M13 8H7V9H13V8Z" fill="#34322D"/>
<path d="M14.85 4.65L11.35 1.15C11.25 1.05 11.15 1 11 1H6C5.45 1 5 1.45 5 2V14C5 14.55 5.45 15 6 15H14C14.55 15 15 14.55 15 14V5C15 4.85 14.95 4.75 14.85 4.65ZM11 2.2L13.8 5H11V2.2ZM14 14H6V2H10V5C10 5.55 10.45 6 11 6H14V14Z" fill="#34322D"/>
</svg>
