<svg width="16" height="16" viewBox="0 0 16 16" fill="none" xmlns="http://www.w3.org/2000/svg">
<path fill-rule="evenodd" clip-rule="evenodd" d="M13.6404 8.18997H11.8686C11.7555 8.18997 11.6501 8.1361 11.586 8.04596C11.5223 7.95605 11.508 7.84144 11.5486 7.73939L12.2703 5.92471L12.2767 5.90896C12.4592 5.42477 12.5513 4.91768 12.5513 4.4002C12.5513 1.9739 10.5102 0 8.00127 0C5.49252 0 3.45112 1.9739 3.45112 4.4002C3.45112 4.70287 3.48322 5.005 3.54607 5.29842C3.58711 5.48979 3.64325 5.68295 3.71259 5.87226C3.71411 5.87605 3.7153 5.87957 3.71622 5.88319L3.76597 6.0109L3.77171 6.02617L4.43828 7.74178C4.47791 7.84366 4.46345 7.95772 4.39909 8.04726C4.33537 8.13637 4.23002 8.18986 4.11731 8.18986H2.36236C1.69037 8.18986 1.14404 8.71833 1.14404 9.36823C1.14404 10.0176 1.69037 10.5463 2.36236 10.5463H4.22607C4.36498 10.5463 4.49014 10.6274 4.54303 10.7517C4.59603 10.8758 4.5661 11.0188 4.46719 11.1135L3.10377 12.4189C2.87499 12.6403 2.74797 12.9362 2.74797 13.2508C2.74797 13.5656 2.87499 13.8614 3.10512 14.084C3.33494 14.3066 3.64113 14.4289 3.96638 14.4289C4.29184 14.4289 4.59722 14.3069 4.82643 14.0853L6.19904 12.771C6.26449 12.7081 6.35176 12.6751 6.44005 12.6751C6.48439 12.6751 6.52927 12.6833 6.57209 12.7005C6.69958 12.752 6.78262 12.8726 6.78262 13.0063V14.8217C6.78262 15.4713 7.32939 16 8.00095 16C8.67277 16 9.21948 15.4713 9.21948 14.8217V13.0079C9.21948 12.874 9.30242 12.7533 9.43045 12.7018C9.55799 12.6501 9.70535 12.6783 9.8035 12.7726L11.1689 14.0831C11.3999 14.3066 11.706 14.4289 12.0312 14.4289C12.3565 14.4289 12.6626 14.3066 12.8926 14.084C13.1228 13.8613 13.2494 13.5657 13.2494 13.2508C13.2494 12.9362 13.1222 12.64 12.8918 12.4168L11.5331 11.113C11.4345 11.0183 11.405 10.8757 11.4578 10.7515C11.5108 10.6274 11.6356 10.5463 11.7745 10.5463H13.6402C14.3117 10.5463 14.8584 10.0176 14.8584 9.36823C14.8584 8.71838 14.3119 8.18997 13.6404 8.18997ZM6.69427 3.47995C6.13749 3.47995 5.68448 3.91802 5.68448 4.4565C5.68448 4.99494 6.13749 5.43305 6.69427 5.43305C7.251 5.43305 7.70401 4.99494 7.70401 4.4565C7.70401 3.91802 7.251 3.47995 6.69427 3.47995ZM10.2249 5.14722C9.83149 5.52779 9.19074 5.52763 8.79723 5.14722C8.40334 4.7661 8.40334 4.14663 8.79723 3.76573C9.19057 3.38543 9.83127 3.38527 10.2249 3.76595C10.3805 3.91666 10.6331 3.91666 10.7889 3.76595C10.9446 3.6154 10.9446 3.3713 10.7889 3.22075C10.0842 2.53948 8.93782 2.53892 8.23324 3.22059C8.18609 3.26628 8.14262 3.31386 8.1018 3.36329C7.77027 2.9647 7.26281 2.70872 6.69417 2.70872C5.69769 2.70872 4.88707 3.49283 4.88707 4.45645C4.88707 5.42006 5.69769 6.20416 6.69417 6.20416C7.26281 6.20416 7.77027 5.9481 8.1018 5.54961C8.14262 5.59904 8.18604 5.64657 8.23324 5.69231C8.5855 6.03309 9.04831 6.20346 9.51111 6.20346C9.97392 6.20346 10.4365 6.03309 10.7889 5.69231C10.9446 5.54176 10.9446 5.29766 10.7889 5.14722C10.6331 4.9964 10.3805 4.9964 10.2249 5.14722Z" fill="#34322D"/>
</svg>
