<svg width="20" height="20" viewBox="0 0 20 20" fill="none" xmlns="http://www.w3.org/2000/svg">
<path fill-rule="evenodd" clip-rule="evenodd" d="M18.5 0C19.3284 0 20 0.671573 20 1.5V18.5C20 19.3284 19.3284 20 18.5 20H1.5C0.671573 20 3.2213e-08 19.3284 0 18.5V1.5C0 0.671573 0.671573 3.2213e-08 1.5 0H18.5ZM10.084 11.7402C9.98636 11.6426 9.8281 11.6426 9.73047 11.7402L3.49219 17.9775C3.48466 17.9851 3.48935 18 3.5 18H15.7402C15.9629 18 16.0744 17.7307 15.917 17.5732L10.084 11.7402ZM17.9775 3.49219L11.498 9.97266C11.4004 10.0703 11.4004 10.2285 11.498 10.3262L17.7578 16.5859C17.8486 16.6765 18 16.6282 18 16.5V3.5C18 3.48935 17.9851 3.48466 17.9775 3.49219ZM2.42676 4.08301C2.26927 3.92555 2.00003 4.03707 2 4.25977V16.5C2 16.5535 2.06468 16.5769 2.10254 16.5391L8.31641 10.3262C8.41401 10.2286 8.414 10.0703 8.31641 9.97266L2.42676 4.08301ZM3.5 2C3.37128 2 3.32304 2.15117 3.41406 2.24219L9.73047 8.55859C9.8281 8.65619 9.98636 8.6562 10.084 8.55859L16.5391 2.10254C16.5769 2.06468 16.5535 2 16.5 2H3.5Z" fill="#34322D"/>
</svg>
