<svg width="16" height="16" viewBox="0 0 16 16" fill="none" xmlns="http://www.w3.org/2000/svg">
<rect width="16" height="16" fill="white" fill-opacity="0.01" style="mix-blend-mode:multiply"/>
<path fill-rule="evenodd" clip-rule="evenodd" d="M6.63424 1.13448C7.9921 0.864385 9.40008 1.00311 10.6792 1.53292C11.9582 2.06273 13.0516 2.95996 13.8208 4.11104C14.5899 5.26219 15.0004 6.61622 15.0004 8.00069C15.0004 8.16928 14.9868 8.33505 14.9751 8.50069H6.01705C6.0685 10.4407 6.63713 12.3317 7.66451 13.9782C7.77581 13.9926 7.88822 14.0004 8.00045 14.0007V15.0007C6.61598 15.0007 5.26194 14.5902 4.1108 13.821C2.95972 13.0519 2.06248 11.9584 1.53267 10.6794C1.00286 9.40032 0.86414 7.99235 1.13424 6.63448C1.40435 5.27668 2.07132 4.02942 3.05025 3.0505C4.02918 2.07157 5.27643 1.4046 6.63424 1.13448ZM2.02584 8.50069C2.12978 9.72034 2.60345 10.8793 3.38424 11.822C4.16518 12.7648 5.21581 13.4469 6.39498 13.7761C5.54293 12.1445 5.07282 10.3405 5.019 8.50069H2.02584ZM6.39498 2.2253C5.21588 2.55452 4.16514 3.23564 3.38424 4.17843C2.60328 5.12127 2.12973 6.28084 2.02584 7.50069H5.019C5.07277 5.66084 5.54298 3.85687 6.39498 2.2253ZM8.33541 2.02218C8.11274 1.99299 7.88718 1.99296 7.66451 2.02218C6.63704 3.66879 6.06843 5.56049 6.01705 7.50069H9.98385C9.93246 5.56049 9.36288 3.66879 8.33541 2.02218ZM9.60494 2.2253C10.457 3.85689 10.9282 5.66079 10.9819 7.50069H13.9751C13.8712 6.28083 13.3966 5.12127 12.6157 4.17843C11.8347 3.23566 10.7841 2.55446 9.60494 2.2253Z" fill="#161616"/>
<path d="M14.0004 11.0007H11.7075L15.0004 14.2937L14.2934 15.0007L11.0004 11.7077V14.0007H10.0004V10.0007H14.0004V11.0007Z" fill="#161616"/>
</svg>
